<svg id="Ebene_1" data-name="Ebene 1" xmlns="http://www.w3.org/2000/svg" viewBox="0 0 290 290"><defs><style>.cls-1{fill:#fff;}.cls-2{fill:#7f8388;}.cls-3{fill:#ff662b;}.cls-4{fill:#20242a;}</style></defs><title>logo-oseven</title><rect class="cls-1" width="290" height="290"/><path class="cls-2" d="M31.44,213.57a18.8,18.8,0,1,1,18.83,18.69A18.56,18.56,0,0,1,31.44,213.57Zm34,0a15.15,15.15,0,1,0-15.12,15.25A15,15,0,0,0,65.39,213.57Z"/><path class="cls-2" d="M101.06,222.09c0,5.88-5.16,10.17-12.82,10.17-7.17,0-11.89-3.36-13.61-7.95l3.08-1.79c1.29,3.87,5.15,6.3,10.53,6.3,5,0,9.24-2.22,9.24-6.73,0-9.74-21.71-4.15-21.71-17,0-5.66,4.87-10.18,12.18-10.18,5.8,0,10.24,2.8,12.18,7.17l-3,1.72c-1.51-3.73-5.23-5.45-9.17-5.45-4.66,0-8.6,2.44-8.6,6.74C79.35,214.64,101.06,209,101.06,222.09Z"/><path class="cls-2" d="M142.46,213.71c0,.58-.08,1.15-.08,1.72H109.94c.86,8.09,7,13.39,15.18,13.39,5.88,0,10.32-2.72,12.39-6.51l3.16,1.86c-2.94,4.87-8.53,8.09-15.62,8.09-11,0-18.84-7.88-18.84-18.69,0-10.53,7.6-18.7,18.56-18.7S142.46,203.9,142.46,213.71Zm-32.52-1.79h28.79c-.79-8.74-6.95-13.61-14-13.61A14.43,14.43,0,0,0,109.94,211.92Z"/><path class="cls-2" d="M179.49,195.66l-15.12,35.82H160l-15.19-35.82h3.87l13.46,32.09,13.54-32.09Z"/><path class="cls-2" d="M218.38,213.71c0,.58-.07,1.15-.07,1.72H185.86c.86,8.09,7,13.39,15.19,13.39,5.87,0,10.31-2.72,12.39-6.51l3.15,1.86c-2.94,4.87-8.52,8.09-15.61,8.09-11,0-18.84-7.88-18.84-18.69,0-10.53,7.59-18.7,18.55-18.7S218.38,203.9,218.38,213.71Zm-32.52-1.79h28.8c-.79-8.74-6.95-13.61-14-13.61A14.44,14.44,0,0,0,185.86,211.92Z"/><path class="cls-2" d="M257.06,209.2v22.28h-3.65V209.2c0-6.59-3.8-10.89-10.53-10.89-7,0-12.54,4.59-12.54,14.26v18.91h-3.58V195.66h3.58v6.81c2.72-5.3,7.31-7.6,12.82-7.6C251.69,194.87,257.06,200.53,257.06,209.2Z"/><path class="cls-3" d="M207.56,73.63a48.56,48.56,0,0,0-10,1,61.13,61.13,0,0,1,2.94,5.55,43,43,0,1,1,7.07,85.43H163.25a62.12,62.12,0,0,1-19.09,3h-3v3h66.4a49,49,0,0,0,0-98Z"/><path class="cls-4" d="M144.16,41.33A65.21,65.21,0,0,0,86.11,77a45,45,0,0,1,6.17,1.14,59.15,59.15,0,1,1,51.88,87.56H97.1a45.73,45.73,0,0,1-16.35,3c-.59,0-1.17,0-1.75,0v3h65.16a65.16,65.16,0,0,0,0-130.32Z"/><path class="cls-2" d="M80.75,171.65a49,49,0,1,1,49-49A49.06,49.06,0,0,1,80.75,171.65Zm0-92a43,43,0,1,0,43,43A43.06,43.06,0,0,0,80.75,79.63Z"/></svg>