<?xml version="1.0" encoding="UTF-8" standalone="no"?><!DOCTYPE svg PUBLIC "-//W3C//DTD SVG 1.1//EN" "http://www.w3.org/Graphics/SVG/1.1/DTD/svg11.dtd"><svg width="100%" height="100%" viewBox="0 0 14617 5417" version="1.1" xmlns="http://www.w3.org/2000/svg" xmlns:xlink="http://www.w3.org/1999/xlink" xml:space="preserve" xmlns:serif="http://www.serif.com/" style="fill-rule:evenodd;clip-rule:evenodd;stroke-linejoin:round;stroke-miterlimit:1.41421;"><g><path d="M1327.7,3465.5l0,-2740.23l-1023.61,0l0,-366.636l2462.61,0l0,366.636l-1027.85,0l0,2740.23l-411.141,0Z" style="fill:#fff;fill-rule:nonzero;stroke:#fff;stroke-width:37.5px;"/><path d="M4515.1,358.631l1203.75,3106.87l-447.169,0l-807.446,-2254.92c-70.643,-197.8 -125.038,-368.049 -163.185,-510.747c-46.624,170.955 -101.726,341.204 -165.304,510.747l-839.236,2254.92l-419.618,0l1214.35,-3106.87l423.856,0Z" style="fill:#fff;fill-rule:nonzero;stroke:#fff;stroke-width:37.5px;"/><path d="M6070.66,3465.5l0,-3106.87l411.141,0l0,2740.23l1530.12,0l0,366.636l-1941.26,0Z" style="fill:#fff;fill-rule:nonzero;stroke:#fff;stroke-width:37.5px;"/><path d="M8370.08,1952.33c0,-517.105 139.166,-921.182 417.499,-1212.23c278.332,-291.048 635.078,-436.572 1070.24,-436.572c436.572,0 792.965,147.996 1069.18,443.99c276.213,295.993 414.32,685.588 414.32,1168.78c0,480.371 -139.166,867.493 -417.499,1161.37c-278.332,293.874 -634.372,440.811 -1068.12,440.811c-312.241,0 -585.982,-78.06 -821.223,-234.181c-235.24,-156.12 -404.783,-356.746 -508.628,-601.876c-103.844,-245.13 -155.767,-488.495 -155.767,-730.093Zm423.857,6.358c0,354.626 96.074,644.615 288.222,869.965c192.149,225.351 449.288,338.026 771.419,338.026c316.48,0 572.913,-111.262 769.3,-333.787c196.387,-222.525 294.58,-528.761 294.58,-918.709c0,-395.6 -98.899,-703.955 -296.699,-925.067c-197.8,-221.112 -451.408,-331.668 -760.823,-331.668c-303.764,0 -557.371,103.845 -760.822,311.535c-203.452,207.689 -305.177,537.591 -305.177,989.705Zm447.169,135.634l0,-364.517l1229.18,0l0,364.517l-1229.18,0Z" style="fill:#fff;fill-rule:nonzero;stroke:#fff;stroke-width:37.5px;"/><path d="M11737.6,2467.32l387.829,-33.909c18.367,155.414 61.106,282.924 128.216,382.531c67.111,99.606 171.309,180.139 312.595,241.598c141.285,61.459 300.231,92.189 476.838,92.189c156.827,0 295.287,-23.312 415.38,-69.937c120.092,-46.624 209.456,-110.555 268.089,-191.795c58.634,-81.239 87.95,-169.895 87.95,-265.97c0,-97.487 -28.257,-182.611 -84.771,-255.373c-56.514,-72.762 -149.763,-133.868 -279.745,-183.318c-83.359,-32.496 -267.736,-83.005 -553.133,-151.529c-285.397,-68.523 -485.316,-133.162 -599.757,-193.914c-148.35,-77.707 -258.906,-174.135 -331.668,-289.283c-72.762,-115.147 -109.143,-244.07 -109.143,-386.769c0,-156.827 44.505,-303.41 133.515,-439.751c89.009,-136.34 218.992,-239.832 389.948,-310.475c170.955,-70.643 360.984,-105.964 570.087,-105.964c230.295,0 433.393,37.087 609.294,111.262c175.9,74.175 311.181,183.318 405.842,327.43c94.662,144.111 145.524,307.296 152.589,489.554l-394.187,29.67c-21.193,-196.387 -92.895,-344.737 -215.107,-445.05c-122.212,-100.312 -302.704,-150.469 -541.477,-150.469c-248.662,0 -429.861,45.565 -543.596,136.694c-113.735,91.129 -170.602,200.979 -170.602,329.549c0,111.615 40.266,203.451 120.799,275.506c79.12,72.056 285.75,145.878 619.89,221.466c334.14,75.587 563.376,141.638 687.707,198.152c180.846,83.359 314.361,188.97 400.545,316.833c86.184,127.864 129.276,275.154 129.276,441.871c0,165.304 -47.33,321.071 -141.992,467.302c-94.661,146.23 -230.648,259.965 -407.962,341.204c-177.313,81.239 -376.879,121.859 -598.697,121.859c-281.158,0 -516.752,-40.973 -706.781,-122.918c-190.029,-81.946 -339.085,-205.218 -447.169,-369.815c-108.083,-164.598 -164.951,-350.742 -170.602,-558.431Z" style="fill:#fff;fill-rule:nonzero;stroke:#fff;stroke-width:37.5px;"/></g><path d="M5667.76,4517.77c13.282,0 21.094,10.546 23.438,31.64c-3.906,21.875 -14.844,32.813 -32.813,32.813c-13.281,0 -21.875,-10.938 -25.781,-32.813c7.031,-21.094 18.75,-31.64 35.156,-31.64Z" style="fill:#fff;fill-rule:nonzero;"/><path d="M5820.85,4517.77c13.281,0 21.094,10.546 23.438,31.64c-3.907,21.875 -14.844,32.813 -32.813,32.813c-13.281,0 -21.875,-10.938 -25.781,-32.813c7.031,-21.094 18.75,-31.64 35.156,-31.64Z" style="fill:#fff;fill-rule:nonzero;"/><path d="M5973.95,4517.77c13.281,0 21.094,10.546 23.437,31.64c-3.906,21.875 -14.843,32.813 -32.812,32.813c-13.281,0 -21.875,-10.938 -25.781,-32.813c7.031,-21.094 18.75,-31.64 35.156,-31.64Z" style="fill:#fff;fill-rule:nonzero;"/><path d="M6521.54,4249.41c15.625,0 24.218,9.766 25.781,29.297c0,17.188 -20.313,28.125 -60.938,32.813c-25.781,19.531 -38.671,44.921 -38.671,76.171l0,31.641c12.5,68.75 33.984,103.125 64.453,103.125l9.375,0c17.187,0 43.359,-16.797 78.515,-50.391l5.86,0c12.5,0 22.265,8.985 29.297,26.954c-8.594,27.343 -36.719,51.562 -84.375,72.656c-7.813,3.906 -18.75,5.859 -32.813,5.859c-63.281,0 -105.078,-50.781 -125.391,-152.344l0,-19.921c0,-73.438 30.079,-123.438 90.235,-150l38.672,-5.86Z" style="fill:#fff;fill-rule:nonzero;"/><path d="M6788.31,4203.71c39.063,0 62.5,27.344 70.313,82.031l0,8.203c0,60.938 -31.25,116.797 -93.75,167.579c35.937,35.156 99.219,52.734 189.844,52.734c14.062,5.469 21.093,15.234 21.093,29.297c0,17.187 -10.937,25.781 -32.812,25.781c-61.719,0 -126.172,-15.625 -193.36,-46.875l0,26.953c0,64.063 -13.671,96.094 -41.015,96.094c-19.531,0 -29.297,-37.109 -29.297,-111.328l0,-72.656l-2.344,-26.954l5.86,-29.296l-5.86,-90.235l0,-3.515c0,-17.188 8.594,-28.907 25.781,-35.157c24.219,-48.437 52.735,-72.656 85.547,-72.656Zm-46.875,205.078c17.969,0 38.282,-32.422 60.938,-97.265l0,-41.016l-11.719,-11.719l-8.203,0c-27.344,18.75 -41.016,68.75 -41.016,150Z" style="fill:#fff;fill-rule:nonzero;"/><path d="M7072.65,4236.52c25.781,0.781 67.969,44.531 126.563,131.25l2.343,15.234c0,17.969 -42.968,31.641 -128.906,41.016l-2.344,2.343l0,3.516c13.282,56.25 26.953,84.375 41.016,84.375l11.719,0c19.531,0 49.609,-21.484 90.234,-64.453l5.859,0c13.282,0 23.047,8.984 29.297,26.953c0,15.625 -26.172,41.797 -78.515,78.516c-14.063,7.812 -30.86,13.671 -50.391,17.578c-50.781,0 -85.937,-47.657 -105.469,-142.969c-28.906,-4.688 -43.359,-16.406 -43.359,-35.156c0,-14.063 10.547,-23.047 31.641,-26.953l0,3.515l9.375,-3.515l0,-23.438c0,-71.875 20.312,-107.812 60.937,-107.812Zm-2.344,66.796l-3.515,35.157l0,29.297l3.515,0c35.157,-1.563 52.735,-5.469 52.735,-11.719c-16.407,-24.219 -31.25,-41.797 -44.532,-52.735l-8.203,0Z" style="fill:#fff;fill-rule:nonzero;"/><path d="M7441.37,4210.74c27.344,0 41.015,10.938 41.015,32.813l-8.203,17.578l-5.859,172.266c0,77.343 15.625,125.39 46.875,144.14l2.344,14.063c-2.344,17.968 -10.938,26.953 -25.782,26.953l-5.859,0c-46.875,-32.031 -70.312,-80.86 -70.312,-146.485l-5.86,0c-25,70.313 -55.469,105.469 -91.406,105.469c-32.813,-9.375 -49.219,-33.984 -49.219,-73.828c0,-88.281 35.156,-176.172 105.469,-263.672c24.219,-19.531 46.484,-29.297 66.797,-29.297Zm-117.188,281.25l0,17.578l9.375,0c46.875,-116.406 70.313,-187.5 70.313,-213.281l-3.516,0c-35.937,39.844 -60.156,96.485 -72.656,169.922l-3.516,25.781Z" style="fill:#fff;fill-rule:nonzero;"/><path d="M7633.13,4003.32c17.188,3.907 25.782,12.891 25.782,26.954l-5.86,41.015l0,11.719c0,26.562 3.125,55.859 9.375,87.891l2.344,0c71.094,-21.875 116.016,-32.813 134.766,-32.813c17.968,3.906 26.953,12.891 26.953,26.953c0,21.094 -21.485,31.641 -64.453,31.641l-97.266,35.156c0,86.719 8.984,201.172 26.953,343.359c-3.906,17.188 -12.89,25.782 -26.953,25.782l-2.344,0c-21.875,0 -32.812,-28.125 -32.812,-84.375c-7.813,-44.532 -14.453,-135.547 -19.922,-273.047l-17.578,0c-58.594,-3.906 -87.891,-17.578 -87.891,-41.016c0,-7.031 6.641,-15.625 19.922,-25.781l9.375,0l43.359,11.719l29.297,0l-8.203,-117.188c0,-45.312 11.719,-67.969 35.156,-67.969Z" style="fill:#fff;fill-rule:nonzero;"/><path d="M7848.34,4084.18c23.437,4.687 35.156,15.234 35.156,31.64c-6.25,17.969 -16.016,26.954 -29.297,26.954c-23.438,-4.688 -35.156,-16.407 -35.156,-35.157c7.031,-15.625 16.797,-23.437 29.297,-23.437Zm35.156,131.25c10.937,0 19.531,8.984 25.781,26.953l-8.203,66.797l0,44.531c0,50 8.594,117.188 25.781,201.563c-6.25,11.718 -16.797,17.578 -31.64,17.578c-25,0 -41.797,-75 -50.391,-225l0,-32.813c0,-66.406 12.891,-99.609 38.672,-99.609Z" style="fill:#fff;fill-rule:nonzero;"/><path d="M8078.78,4256.44c53.125,5.469 79.688,31.641 79.688,78.516l2.343,11.719l-2.343,146.484c0,16.406 9.765,39.063 29.296,67.969l0,2.344c-4.687,17.968 -13.671,26.953 -26.953,26.953c-39.062,-15.625 -58.593,-50 -58.593,-103.125l0,-11.719l-2.344,-2.344l2.344,-3.515l0,-2.344l3.515,-128.906c0,-17.969 -7.812,-26.953 -23.437,-26.953l-11.719,0c-31.25,12.5 -46.875,80.859 -46.875,205.078c0,42.968 -10.938,64.453 -32.813,64.453c-16.406,0 -25,-10.547 -25.781,-31.641l0,-93.75c0,-121.094 10.547,-181.64 31.641,-181.64l9.375,-3.516l19.922,3.516c16.406,-11.719 33.984,-17.579 52.734,-17.579Z" style="fill:#fff;fill-rule:nonzero;"/><path d="M8350.23,4213.08c28.906,0 43.36,13.672 43.36,41.016c3.906,0 5.859,4.687 5.859,14.062l3.516,0l-3.516,26.953l3.516,189.844l-5.86,150c56.25,0 94.141,41.016 113.672,123.047c0,17.187 -11.719,26.953 -35.156,29.297c-10.156,0 -21.875,-23.438 -35.156,-70.313c-12.5,-17.968 -26.954,-26.953 -43.36,-26.953l-3.515,0c-19.532,132.813 -37.11,199.219 -52.735,199.219c-17.187,33.594 -43.359,50.391 -78.515,50.391c-50.782,-12.5 -76.172,-37.891 -76.172,-76.172l0,-5.86c0,-59.375 41.797,-123.047 125.39,-191.015l29.297,-17.578l3.516,-101.954l0,-23.437l-3.516,0c-21.875,27.344 -42.187,41.016 -60.937,41.016l-5.86,0c-42.187,0 -66.797,-33.204 -73.828,-99.61l0,-21.094c0,-78.906 29.297,-148.046 87.891,-207.421c18.75,-15.625 39.453,-23.438 62.109,-23.438Zm-93.75,263.672c3.125,21.094 7.813,31.641 14.063,31.641l9.375,0c17.968,0 39.453,-64.454 64.453,-193.36l0,-46.875c-37.5,0 -66.797,54.688 -87.891,164.063l0,44.531Zm-15.234,383.203c3.125,15.625 12.109,23.438 26.953,23.438c29.687,0 51.172,-53.516 64.453,-160.547l-5.859,0c-57.032,50 -85.547,95.703 -85.547,137.109Z" style="fill:#fff;fill-rule:nonzero;"/><path d="M8781.81,4084.18c23.438,4.687 35.157,15.234 35.157,31.64c-6.25,17.969 -16.016,26.954 -29.297,26.954c-23.438,-4.688 -35.157,-16.407 -35.157,-35.157c7.032,-15.625 16.797,-23.437 29.297,-23.437Zm35.157,131.25c10.937,0 19.531,8.984 25.781,26.953l-8.203,66.797l0,44.531c0,50 8.593,117.188 25.781,201.563c-6.25,11.718 -16.797,17.578 -31.641,17.578c-25,0 -41.797,-75 -50.39,-225l0,-32.813c0,-66.406 12.89,-99.609 38.672,-99.609Z" style="fill:#fff;fill-rule:nonzero;"/><path d="M9012.24,4256.44c53.125,5.469 79.687,31.641 79.687,78.516l2.344,11.719l-2.344,146.484c0,16.406 9.766,39.063 29.297,67.969l0,2.344c-4.687,17.968 -13.672,26.953 -26.953,26.953c-39.062,-15.625 -58.594,-50 -58.594,-103.125l0,-11.719l-2.343,-2.344l2.343,-3.515l0,-2.344l3.516,-128.906c0,-17.969 -7.813,-26.953 -23.438,-26.953l-11.718,0c-31.25,12.5 -46.875,80.859 -46.875,205.078c0,42.968 -10.938,64.453 -32.813,64.453c-16.406,0 -25,-10.547 -25.781,-31.641l0,-93.75c0,-121.094 10.547,-181.64 31.641,-181.64l9.375,-3.516l19.921,3.516c16.407,-11.719 33.985,-17.579 52.735,-17.579Z" style="fill:#fff;fill-rule:nonzero;"/><path d="M9321.2,4193.16c16.406,0 28.125,28.516 35.156,85.547c-6.25,15.625 -16.797,23.438 -31.64,23.438c-9.375,-2.344 -19.141,-14.063 -29.297,-35.157l-17.578,-5.859c-28.907,0 -55.469,19.531 -79.688,58.594l0,8.203c0,10.156 44.141,25.781 132.422,46.875c36.719,21.094 55.078,47.656 55.078,79.687c0,51.563 -41.016,95.313 -123.047,131.25l-35.156,5.86c-52.344,-5.469 -78.516,-31.641 -78.516,-78.516l0,-3.516c0,-14.062 9.766,-22.656 29.297,-25.781c15.625,0 25.391,15.625 29.297,46.875l8.203,5.86l15.235,0c35.937,0 69.14,-24.61 99.609,-73.829l0,-11.718c0,-18.75 -41.016,-36.328 -123.047,-52.735c-42.969,-17.968 -64.453,-42.187 -64.453,-72.656c0,-40.625 33.984,-78.906 101.953,-114.844c29.688,-3.906 55.078,-9.765 76.172,-17.578Z" style="fill:#fff;fill-rule:nonzero;"/><path d="M9414.52,4084.18c23.438,4.687 35.156,15.234 35.156,31.64c-6.25,17.969 -16.015,26.954 -29.297,26.954c-23.437,-4.688 -35.156,-16.407 -35.156,-35.157c7.031,-15.625 16.797,-23.437 29.297,-23.437Zm35.156,131.25c10.938,0 19.532,8.984 25.782,26.953l-8.204,66.797l0,44.531c0,50 8.594,117.188 25.782,201.563c-6.25,11.718 -16.797,17.578 -31.641,17.578c-25,0 -41.797,-75 -50.391,-225l0,-32.813c0,-66.406 12.891,-99.609 38.672,-99.609Z" style="fill:#fff;fill-rule:nonzero;"/><path d="M9674.26,4213.08c28.907,0 43.36,13.672 43.36,41.016c3.906,0 5.859,4.687 5.859,14.062l3.516,0l-3.516,26.953l3.516,189.844l-5.86,150c56.25,0 94.141,41.016 113.672,123.047c0,17.187 -11.718,26.953 -35.156,29.297c-10.156,0 -21.875,-23.438 -35.156,-70.313c-12.5,-17.968 -26.953,-26.953 -43.36,-26.953l-3.515,0c-19.531,132.813 -37.11,199.219 -52.735,199.219c-17.187,33.594 -43.359,50.391 -78.515,50.391c-50.781,-12.5 -76.172,-37.891 -76.172,-76.172l0,-5.86c0,-59.375 41.797,-123.047 125.391,-191.015l29.296,-17.578l3.516,-101.954l0,-23.437l-3.516,0c-21.875,27.344 -42.187,41.016 -60.937,41.016l-5.859,0c-42.188,0 -66.797,-33.204 -73.829,-99.61l0,-21.094c0,-78.906 29.297,-148.046 87.891,-207.421c18.75,-15.625 39.453,-23.438 62.109,-23.438Zm-93.75,263.672c3.125,21.094 7.813,31.641 14.063,31.641l9.375,0c17.969,0 39.453,-64.454 64.453,-193.36l0,-46.875c-37.5,0 -66.797,54.688 -87.891,164.063l0,44.531Zm-15.234,383.203c3.125,15.625 12.109,23.438 26.953,23.438c29.688,0 51.172,-53.516 64.453,-160.547l-5.859,0c-57.031,50 -85.547,95.703 -85.547,137.109Z" style="fill:#fff;fill-rule:nonzero;"/><path d="M9798.06,4054.88c17.188,0 25.782,21.484 25.782,64.453l11.718,160.547l3.516,0l46.875,-17.578c52.344,0 84.375,53.906 96.094,161.719c3.906,32.031 5.859,76.953 5.859,134.765l0,76.172c0,23.438 -8.594,35.156 -25.781,35.156l-3.516,0c-17.187,-2.343 -25.781,-11.328 -25.781,-26.953l0,-87.89c0,-141.407 -13.672,-219.532 -41.016,-234.375l-5.859,0c-19.531,0 -33.203,28.515 -41.016,85.546l0,52.735c0,93.75 -7.812,140.625 -23.437,140.625l-17.578,2.344c-17.969,0 -26.953,-26.172 -26.953,-78.516c2.343,-55.469 6.25,-100.391 11.718,-134.766l-19.922,-308.203c0,-15.625 9.766,-24.219 29.297,-25.781Z" style="fill:#fff;fill-rule:nonzero;"/><path d="M10125.8,4003.32c17.188,3.907 25.782,12.891 25.782,26.954l-5.86,41.015l0,11.719c0,26.562 3.125,55.859 9.375,87.891l2.344,0c71.094,-21.875 116.016,-32.813 134.766,-32.813c17.968,3.906 26.953,12.891 26.953,26.953c0,21.094 -21.485,31.641 -64.453,31.641l-97.266,35.156c0,86.719 8.984,201.172 26.953,343.359c-3.906,17.188 -12.89,25.782 -26.953,25.782l-2.344,0c-21.875,0 -32.812,-28.125 -32.812,-84.375c-7.813,-44.532 -14.453,-135.547 -19.922,-273.047l-17.578,0c-58.594,-3.906 -87.891,-17.578 -87.891,-41.016c0,-7.031 6.641,-15.625 19.922,-25.781l9.375,0l43.359,11.719l29.297,0l-8.203,-117.188c0,-45.312 11.719,-67.969 35.156,-67.969Z" style="fill:#fff;fill-rule:nonzero;"/><path d="M10517.9,4193.16c16.406,0 28.125,28.516 35.156,85.547c-6.25,15.625 -16.797,23.438 -31.641,23.438c-9.375,-2.344 -19.14,-14.063 -29.297,-35.157l-17.578,-5.859c-28.906,0 -55.468,19.531 -79.687,58.594l0,8.203c0,10.156 44.14,25.781 132.422,46.875c36.718,21.094 55.078,47.656 55.078,79.687c0,51.563 -41.016,95.313 -123.047,131.25l-35.156,5.86c-52.344,-5.469 -78.516,-31.641 -78.516,-78.516l0,-3.516c0,-14.062 9.766,-22.656 29.297,-25.781c15.625,0 25.391,15.625 29.297,46.875l8.203,5.86l15.234,0c35.938,0 69.141,-24.61 99.61,-73.829l0,-11.718c0,-18.75 -41.016,-36.328 -123.047,-52.735c-42.969,-17.968 -64.453,-42.187 -64.453,-72.656c0,-40.625 33.984,-78.906 101.953,-114.844c29.687,-3.906 55.078,-9.765 76.172,-17.578Z" style="fill:#fff;fill-rule:nonzero;"/><path d="M11046.8,4003.32c17.188,3.907 25.782,12.891 25.782,26.954l-5.86,41.015l0,11.719c0,26.562 3.125,55.859 9.375,87.891l2.344,0c71.094,-21.875 116.016,-32.813 134.766,-32.813c17.968,3.906 26.953,12.891 26.953,26.953c0,21.094 -21.485,31.641 -64.453,31.641l-97.266,35.156c0,86.719 8.984,201.172 26.953,343.359c-3.906,17.188 -12.89,25.782 -26.953,25.782l-2.344,0c-21.875,0 -32.812,-28.125 -32.812,-84.375c-7.813,-44.532 -14.453,-135.547 -19.922,-273.047l-17.578,0c-58.594,-3.906 -87.891,-17.578 -87.891,-41.016c0,-7.031 6.641,-15.625 19.922,-25.781l9.375,0l43.359,11.719l29.297,0l-8.203,-117.188c0,-45.312 11.719,-67.969 35.156,-67.969Z" style="fill:#fff;fill-rule:nonzero;"/><path d="M11290.1,4054.88c17.187,0 25.781,21.484 25.781,64.453l11.719,160.547l3.515,0l46.875,-17.578c52.344,0 84.375,53.906 96.094,161.719c3.906,32.031 5.859,76.953 5.859,134.765l0,76.172c0,23.438 -8.593,35.156 -25.781,35.156l-3.516,0c-17.187,-2.343 -25.781,-11.328 -25.781,-26.953l0,-87.89c0,-141.407 -13.672,-219.532 -41.015,-234.375l-5.86,0c-19.531,0 -33.203,28.515 -41.015,85.546l0,52.735c0,93.75 -7.813,140.625 -23.438,140.625l-17.578,2.344c-17.969,0 -26.953,-26.172 -26.953,-78.516c2.344,-55.469 6.25,-100.391 11.719,-134.766l-19.922,-308.203c0,-15.625 9.765,-24.219 29.297,-25.781Z" style="fill:#fff;fill-rule:nonzero;"/><path d="M11590.8,4236.52c25.781,0.781 67.968,44.531 126.562,131.25l2.344,15.234c0,17.969 -42.969,31.641 -128.906,41.016l-2.344,2.343l0,3.516c13.281,56.25 26.953,84.375 41.015,84.375l11.719,0c19.531,0 49.61,-21.484 90.235,-64.453l5.859,0c13.281,0 23.047,8.984 29.297,26.953c0,15.625 -26.172,41.797 -78.516,78.516c-14.062,7.812 -30.859,13.671 -50.39,17.578c-50.782,0 -85.938,-47.657 -105.469,-142.969c-28.906,-4.688 -43.36,-16.406 -43.36,-35.156c0,-14.063 10.547,-23.047 31.641,-26.953l0,3.515l9.375,-3.515l0,-23.438c0,-71.875 20.313,-107.812 60.938,-107.812Zm-2.344,66.796l-3.516,35.157l0,29.297l3.516,0c35.156,-1.563 52.734,-5.469 52.734,-11.719c-16.406,-24.219 -31.25,-41.797 -44.531,-52.735l-8.203,0Z" style="fill:#fff;fill-rule:nonzero;"/><path d="M12204.1,4236.52c25.782,0.781 67.969,44.531 126.563,131.25l2.344,15.234c0,17.969 -42.969,31.641 -128.907,41.016l-2.343,2.343l0,3.516c13.281,56.25 26.953,84.375 41.015,84.375l11.719,0c19.531,0 49.609,-21.484 90.234,-64.453l5.86,0c13.281,0 23.047,8.984 29.297,26.953c0,15.625 -26.172,41.797 -78.516,78.516c-14.063,7.812 -30.859,13.671 -50.391,17.578c-50.781,0 -85.937,-47.657 -105.468,-142.969c-28.907,-4.688 -43.36,-16.406 -43.36,-35.156c0,-14.063 10.547,-23.047 31.641,-26.953l0,3.515l9.375,-3.515l0,-23.438c0,-71.875 20.312,-107.812 60.937,-107.812Zm-2.343,66.796l-3.516,35.157l0,29.297l3.516,0c35.156,-1.563 52.734,-5.469 52.734,-11.719c-16.406,-24.219 -31.25,-41.797 -44.531,-52.735l-8.203,0Z" style="fill:#fff;fill-rule:nonzero;"/><path d="M12572.8,4210.74c27.344,0 41.016,10.938 41.016,32.813l-8.203,17.578l-5.86,172.266c0,77.343 15.625,125.39 46.875,144.14l2.344,14.063c-2.344,17.968 -10.938,26.953 -25.781,26.953l-5.86,0c-46.875,-32.031 -70.312,-80.86 -70.312,-146.485l-5.86,0c-25,70.313 -55.468,105.469 -91.406,105.469c-32.812,-9.375 -49.219,-33.984 -49.219,-73.828c0,-88.281 35.157,-176.172 105.469,-263.672c24.219,-19.531 46.485,-29.297 66.797,-29.297Zm-117.187,281.25l0,17.578l9.375,0c46.875,-116.406 70.312,-187.5 70.312,-213.281l-3.516,0c-35.937,39.844 -60.156,96.485 -72.656,169.922l-3.515,25.781Z" style="fill:#fff;fill-rule:nonzero;"/><path d="M12841.9,4193.16c16.407,0 28.125,28.516 35.157,85.547c-6.25,15.625 -16.797,23.438 -31.641,23.438c-9.375,-2.344 -19.141,-14.063 -29.297,-35.157l-17.578,-5.859c-28.906,0 -55.469,19.531 -79.687,58.594l0,8.203c0,10.156 44.14,25.781 132.421,46.875c36.719,21.094 55.079,47.656 55.079,79.687c0,51.563 -41.016,95.313 -123.047,131.25l-35.157,5.86c-52.343,-5.469 -78.515,-31.641 -78.515,-78.516l0,-3.516c0,-14.062 9.765,-22.656 29.297,-25.781c15.625,0 25.39,15.625 29.297,46.875l8.203,5.86l15.234,0c35.938,0 69.141,-24.61 99.609,-73.829l0,-11.718c0,-18.75 -41.015,-36.328 -123.046,-52.735c-42.969,-17.968 -64.454,-42.187 -64.454,-72.656c0,-40.625 33.985,-78.906 101.954,-114.844c29.687,-3.906 55.078,-9.765 76.171,-17.578Z" style="fill:#fff;fill-rule:nonzero;"/><path d="M12954,4291.6c21.875,0 36.718,48.047 44.531,144.14c10.937,44.532 18.75,66.797 23.437,66.797l5.86,0c15.625,-39.844 23.437,-78.906 23.437,-117.187l-5.859,-64.453c6.25,-17.188 16.015,-25.782 29.297,-25.782c23.437,0 35.156,41.016 35.156,123.047c13.281,87.5 19.922,166.406 19.922,236.719l0,44.531c0,134.375 -37.891,225 -113.672,271.875l-21.094,3.516c-35.156,0 -68.359,-33.203 -99.609,-99.61l-8.203,-56.25l0,-2.343c0,-41.407 11.718,-62.11 35.156,-62.11l23.437,15.235l-3.515,58.593c0,28.907 14.844,58.204 44.531,87.891l11.719,0c34.375,0 59.765,-65.625 76.172,-196.875l2.343,-55.078c-1.562,-64.063 -4.296,-104.297 -8.203,-120.703c-24.218,21.875 -43.75,32.812 -58.593,32.812c-31.25,0 -59.766,-85.156 -85.547,-255.468l-2.344,-2.344c0,-14.063 10.547,-23.047 31.641,-26.953Z" style="fill:#fff;fill-rule:nonzero;"/><path d="M13755.9,4278.71c42.969,28.906 64.453,73.047 64.453,132.422c0,81.25 -27.343,136.719 -82.031,166.406l-35.156,5.86c-21.875,0 -44.531,-10.547 -67.969,-31.641l-5.859,0c-19.532,25 -37.891,37.5 -55.078,37.5c-44.532,0 -69.922,-41.797 -76.172,-125.391l0,-50.39c4.687,-79.688 21.093,-119.532 49.218,-119.532c15.625,0 24.61,9.766 26.954,29.297c-14.063,24.219 -21.094,59.375 -21.094,105.469l0,17.578c2.344,56.25 8.203,84.375 17.578,84.375c9.375,0 19.141,-16.406 29.297,-49.219l-2.344,-64.453c0,-42.968 10.547,-64.453 31.641,-64.453c23.437,0 35.156,23.438 35.156,70.313l3.516,0l-9.375,58.593c10.156,31.25 25,46.875 44.531,46.875l5.859,0c27.344,0 44.922,-29.296 52.735,-87.89l0,-52.735c0,-19.531 -11.719,-44.14 -35.157,-73.828l-3.515,-8.203c0,-14.062 10.937,-23.047 32.812,-26.953Z" style="fill:#fff;fill-rule:nonzero;"/><path d="M14022.6,4210.74c27.344,0 41.015,10.938 41.015,32.813l-8.203,17.578l-5.859,172.266c0,77.343 15.625,125.39 46.875,144.14l2.344,14.063c-2.344,17.968 -10.938,26.953 -25.782,26.953l-5.859,0c-46.875,-32.031 -70.312,-80.86 -70.312,-146.485l-5.86,0c-25,70.313 -55.469,105.469 -91.406,105.469c-32.813,-9.375 -49.219,-33.984 -49.219,-73.828c0,-88.281 35.156,-176.172 105.469,-263.672c24.219,-19.531 46.484,-29.297 66.797,-29.297Zm-117.188,281.25l0,17.578l9.375,0c46.875,-116.406 70.313,-187.5 70.313,-213.281l-3.516,0c-35.937,39.844 -60.156,96.485 -72.656,169.922l-3.516,25.781Z" style="fill:#fff;fill-rule:nonzero;"/><path d="M14133.5,4291.6c21.875,0 36.719,48.047 44.531,144.14c10.938,44.532 18.75,66.797 23.438,66.797l5.859,0c15.625,-39.844 23.438,-78.906 23.438,-117.187l-5.86,-64.453c6.25,-17.188 16.016,-25.782 29.297,-25.782c23.438,0 35.156,41.016 35.156,123.047c13.282,87.5 19.922,166.406 19.922,236.719l0,44.531c0,134.375 -37.89,225 -113.672,271.875l-21.093,3.516c-35.157,0 -68.36,-33.203 -99.61,-99.61l-8.203,-56.25l0,-2.343c0,-41.407 11.719,-62.11 35.156,-62.11l23.438,15.235l-3.516,58.593c0,28.907 14.844,58.204 44.532,87.891l11.718,0c34.375,0 59.766,-65.625 76.172,-196.875l2.344,-55.078c-1.563,-64.063 -4.297,-104.297 -8.203,-120.703c-24.219,21.875 -43.75,32.812 -58.594,32.812c-31.25,0 -59.766,-85.156 -85.547,-255.468l-2.344,-2.344c0,-14.063 10.547,-23.047 31.641,-26.953Z" style="fill:#fff;fill-rule:nonzero;"/><g id="Ebene1"></g></svg>