<svg id="Ebene_1" data-name="Ebene 1" xmlns="http://www.w3.org/2000/svg" viewBox="0 0 500 170"><defs><style>.cls-1{fill:none;}.cls-2{fill:#fff;}</style></defs><title>20190809 - Talos logoset</title><rect class="cls-1" x="0.23" y="-0.18" width="499.54" height="169.94"/><path class="cls-2" d="M250.61,105.47h-5l-.09-44.6-16.41,0V56.48l37.81-.08v4.43l-16.41,0Z"/><path class="cls-2" d="M274,105.42h-5.47l21.09-49.08h4.84l21.16,49H310.1L291.93,62.58Z"/><path class="cls-2" d="M327.82,100.87l22.86-.05v4.43l-27.85.06-.1-49h5Z"/><path class="cls-2" d="M406.59,80.62a26.71,26.71,0,0,1-1.92,10.32,24.31,24.31,0,0,1-13.44,13.53,27.43,27.43,0,0,1-20.29,0A24.37,24.37,0,0,1,357.44,91a28.42,28.42,0,0,1,0-20.64,24.31,24.31,0,0,1,13.44-13.53,27.5,27.5,0,0,1,20.29,0,24.31,24.31,0,0,1,13.5,13.47A26.91,26.91,0,0,1,406.59,80.62Zm-5.26,0a24.12,24.12,0,0,0-1.41-8.15,20.15,20.15,0,0,0-4-6.8,19.2,19.2,0,0,0-6.41-4.66,21.67,21.67,0,0,0-17,0,19.35,19.35,0,0,0-6.4,4.68,20.33,20.33,0,0,0-4,6.82,24.65,24.65,0,0,0,0,16.32,19.94,19.94,0,0,0,4,6.76,19.23,19.23,0,0,0,6.41,4.62,21.73,21.73,0,0,0,17,0,19.45,19.45,0,0,0,6.4-4.65,20.05,20.05,0,0,0,4-6.78A24.21,24.21,0,0,0,401.33,80.66ZM395.5,78v4.57l-28.88.06V78.07Z"/><path class="cls-2" d="M440.7,63.92a12,12,0,0,0-4.1-3.55,12.37,12.37,0,0,0-6-1.34,12.83,12.83,0,0,0-3.67.56,10.59,10.59,0,0,0-3.39,1.7,8.9,8.9,0,0,0-2.46,2.88,8.54,8.54,0,0,0-.92,4.09,7.55,7.55,0,0,0,.9,3.88,8.54,8.54,0,0,0,2.39,2.59,13.92,13.92,0,0,0,3.39,1.76c1.27.46,2.59.92,4,1.37,1.71.56,3.42,1.15,5.15,1.79a18.84,18.84,0,0,1,4.67,2.52A12.1,12.1,0,0,1,444,86.11a12.53,12.53,0,0,1,1.33,6.06,13.06,13.06,0,0,1-5,10.75,15.27,15.27,0,0,1-5.11,2.57,20.46,20.46,0,0,1-5.78.84,22.11,22.11,0,0,1-4.43-.44,20.05,20.05,0,0,1-4.23-1.34,17.26,17.26,0,0,1-3.74-2.28A16.47,16.47,0,0,1,414,99.09l4.29-3.19a13.23,13.23,0,0,0,4.47,4.39,13.35,13.35,0,0,0,10.57,1.15,10.55,10.55,0,0,0,3.49-1.81,10,10,0,0,0,2.56-3,9.28,9.28,0,0,0,0-8.38,8.9,8.9,0,0,0-2.67-2.83,16.15,16.15,0,0,0-3.81-1.9q-2.16-.77-4.51-1.51c-1.62-.51-3.21-1.08-4.78-1.73a16.26,16.26,0,0,1-4.23-2.51,11.79,11.79,0,0,1-3-3.84,14,14,0,0,1,.25-11.71A12.79,12.79,0,0,1,420.25,58a15.63,15.63,0,0,1,5.05-2.43,20.54,20.54,0,0,1,5.48-.78,18.88,18.88,0,0,1,8.52,1.75,14.74,14.74,0,0,1,5.34,4.18Z"/><path class="cls-2" d="M243.14,134.17v-13h-.08l-5.94,13h-.35l-5.93-13h-.05v13h-.42V120.72h.74L237,133.57l5.86-12.85h.74v13.45Z"/><path class="cls-2" d="M252.75,132.2c0,.33,0,.68.05,1.05s.07.68.11.92h-.4a2.58,2.58,0,0,1-.06-.46c0-.18,0-.37,0-.57s0-.39,0-.58,0-.35,0-.48h0a3.12,3.12,0,0,1-1.31,1.78,3.69,3.69,0,0,1-2,.58,3.81,3.81,0,0,1-1.05-.15,2.75,2.75,0,0,1-.94-.46,2.24,2.24,0,0,1-.68-.78,2.32,2.32,0,0,1-.25-1.12,2.25,2.25,0,0,1,.48-1.5,3.19,3.19,0,0,1,1.21-.88,5.21,5.21,0,0,1,1.55-.41,14.14,14.14,0,0,1,1.51-.1h1.52v-.7a2.69,2.69,0,0,0-.78-2.14,3,3,0,0,0-2-.67,3.67,3.67,0,0,0-1.45.28,4.58,4.58,0,0,0-1.21.76l-.22-.32a4.39,4.39,0,0,1,1.37-.81,4.59,4.59,0,0,1,1.51-.27,3.42,3.42,0,0,1,2.37.77,3.06,3.06,0,0,1,.86,2.42Zm-.41-2.8H251a13.57,13.57,0,0,0-1.52.09,5.55,5.55,0,0,0-1.47.35,2.86,2.86,0,0,0-1.09.76,2,2,0,0,0-.43,1.33,2,2,0,0,0,.24,1,1.91,1.91,0,0,0,.61.65,2.65,2.65,0,0,0,.82.37,3.66,3.66,0,0,0,.84.11,3.29,3.29,0,0,0,1.62-.36,3.06,3.06,0,0,0,1-.92,3.52,3.52,0,0,0,.54-1.24,5.54,5.54,0,0,0,.16-1.32Z"/><path class="cls-2" d="M257.43,125.77a3,3,0,0,1,1.8-.6h.18a.56.56,0,0,1,.17,0v.36a.39.39,0,0,0-.15,0h-.1a2.63,2.63,0,0,0-1.43.37,3.21,3.21,0,0,0-1,1,4.51,4.51,0,0,0-.56,1.33,6.06,6.06,0,0,0-.18,1.45v4.52h-.41v-6.53c0-.14,0-.31,0-.52s0-.4,0-.61,0-.41,0-.6,0-.35,0-.48h.42q0,.19,0,.48c0,.19,0,.39,0,.62s0,.43,0,.64v.56h0A3.46,3.46,0,0,1,257.43,125.77Z"/><path class="cls-2" d="M261.42,129.46l4.52-4h.59l-4.62,4,5.15,4.69h-.62l-5-4.61h0v4.61H261V119.81h.42v9.65Z"/><path class="cls-2" d="M268,129.71a5.35,5.35,0,0,0,.23,1.58,4.28,4.28,0,0,0,.72,1.39,3.76,3.76,0,0,0,1.23,1,3.83,3.83,0,0,0,1.75.38,3.84,3.84,0,0,0,3.21-1.6l.3.27a4.21,4.21,0,0,1-3.51,1.71,4.4,4.4,0,0,1-1.77-.35,4.23,4.23,0,0,1-1.38-1,4.49,4.49,0,0,1-.89-1.5,5.57,5.57,0,0,1-.31-1.9,5,5,0,0,1,.32-1.83,4.59,4.59,0,0,1,.89-1.44,3.88,3.88,0,0,1,1.32-.94,4.07,4.07,0,0,1,1.64-.33,4.17,4.17,0,0,1,1.79.36,3.68,3.68,0,0,1,1.26,1,4,4,0,0,1,.76,1.34,5,5,0,0,1,.24,1.53v.36Zm7.39-.36a4.56,4.56,0,0,0-.3-1.56,3.64,3.64,0,0,0-.75-1.21,3.4,3.4,0,0,0-1.14-.78,3.9,3.9,0,0,0-1.48-.27,3.23,3.23,0,0,0-1.69.41,3.73,3.73,0,0,0-1.15,1,4.24,4.24,0,0,0-.66,1.26,3.86,3.86,0,0,0-.21,1.15Z"/><path class="cls-2" d="M281,134.35a3.92,3.92,0,0,1-.59.05,1.7,1.7,0,0,1-1.46-.58,2.34,2.34,0,0,1-.44-1.45v-6.58h-1.9v-.36h1.89v-2.56h.41v2.56h2.57v.36h-2.57v6.58a1.64,1.64,0,0,0,.44,1.28,1.68,1.68,0,0,0,1.16.39,2.74,2.74,0,0,0,1-.17l.06.32A2.46,2.46,0,0,1,281,134.35Z"/><path class="cls-2" d="M287.36,122.15a.41.41,0,0,1-.3-.14.49.49,0,0,1-.14-.36.46.46,0,0,1,.14-.34.39.39,0,0,1,.3-.13.41.41,0,0,1,.3.13.5.5,0,0,1,0,.7A.42.42,0,0,1,287.36,122.15Zm-.21,12v-8.74h.42v8.74Z"/><path class="cls-2" d="M291.73,126.65a3.7,3.7,0,0,1,.82-.81,3.3,3.3,0,0,1,1-.5,3.38,3.38,0,0,1,1.1-.17,3.17,3.17,0,0,1,1.52.32,2.69,2.69,0,0,1,1,.86,3.43,3.43,0,0,1,.51,1.19,6.21,6.21,0,0,1,.15,1.35v5.28h-.42v-5.24a5.92,5.92,0,0,0-.11-1.14,3.12,3.12,0,0,0-.43-1.1,2.66,2.66,0,0,0-.84-.83,2.55,2.55,0,0,0-1.35-.33,3.29,3.29,0,0,0-1.36.29,3.14,3.14,0,0,0-1.1.85,4.12,4.12,0,0,0-.74,1.34,5.22,5.22,0,0,0-.28,1.79v4.37h-.42v-6.53c0-.14,0-.31,0-.52s0-.4,0-.61a5.74,5.74,0,0,0,0-.6q0-.28,0-.48h.41a3.23,3.23,0,0,1,0,.48c0,.19,0,.39,0,.62s0,.43,0,.64,0,.4,0,.56h0A3.44,3.44,0,0,1,291.73,126.65Z"/><path class="cls-2" d="M305.72,131.89a2.33,2.33,0,0,1-.85,1.85,2.8,2.8,0,0,1-.9.49,3.29,3.29,0,0,1-1.1.17,4,4,0,0,1-1.76-.37,3.19,3.19,0,0,1-1.3-1.09l.34-.23a3.13,3.13,0,0,0,2.73,1.33,2.79,2.79,0,0,0,.85-.13,2.4,2.4,0,0,0,.78-.4,2.18,2.18,0,0,0,.57-.67,1.8,1.8,0,0,0,.22-.91,1.63,1.63,0,0,0-.28-1,2,2,0,0,0-.69-.6,3.94,3.94,0,0,0-.92-.37l-.94-.26q-.48-.14-.9-.3a2.47,2.47,0,0,1-.73-.41,1.83,1.83,0,0,1-.49-.64,2.21,2.21,0,0,1-.18-1,2,2,0,0,1,.23-1,2,2,0,0,1,.6-.69,2.7,2.7,0,0,1,.87-.42,3.27,3.27,0,0,1,1-.14,3.06,3.06,0,0,1,2.68,1.27l-.36.21a3.13,3.13,0,0,0-1-.85,3,3,0,0,0-1.33-.27,3.42,3.42,0,0,0-.76.09,2.29,2.29,0,0,0-.73.32,1.73,1.73,0,0,0-.56.58,1.7,1.7,0,0,0-.21.87,2,2,0,0,0,.18.91,1.39,1.39,0,0,0,.5.55,3.53,3.53,0,0,0,.78.36l1,.27a10.37,10.37,0,0,1,1,.31,3.87,3.87,0,0,1,.86.45,2,2,0,0,1,.59.67A2.06,2.06,0,0,1,305.72,131.89Z"/><path class="cls-2" d="M308.13,122.15a.41.41,0,0,1-.3-.14.49.49,0,0,1-.14-.36.46.46,0,0,1,.14-.34.39.39,0,0,1,.3-.13.41.41,0,0,1,.3.13.5.5,0,0,1,0,.7A.42.42,0,0,1,308.13,122.15Zm-.21,12v-8.74h.42v8.74Z"/><path class="cls-2" d="M319.06,131.82H319a3.84,3.84,0,0,1-.67,1.13,4.28,4.28,0,0,1-.93.82,4,4,0,0,1-1.11.5,4.6,4.6,0,0,1-1.22.17,4.42,4.42,0,0,1-1.76-.35,4.2,4.2,0,0,1-2.29-2.43,5.29,5.29,0,0,1,0-3.68,4.36,4.36,0,0,1,.9-1.48,4,4,0,0,1,1.39-1,4.25,4.25,0,0,1,5.69,2.29h.06v-2.38h.41v8.25a9.29,9.29,0,0,1-.21,2,4.77,4.77,0,0,1-.73,1.67,3.64,3.64,0,0,1-1.33,1.15,4.46,4.46,0,0,1-2,.43,5.46,5.46,0,0,1-2.2-.43,4.78,4.78,0,0,1-1.66-1.21l.29-.28a4.32,4.32,0,0,0,1.64,1.18,5.1,5.1,0,0,0,1.93.37,4,4,0,0,0,1.9-.41,3.22,3.22,0,0,0,1.2-1.11,4.72,4.72,0,0,0,.62-1.56,9.19,9.19,0,0,0,.18-1.84Zm-7.95-2a5,5,0,0,0,.28,1.64,4.06,4.06,0,0,0,.79,1.37,3.71,3.71,0,0,0,1.24.93,4,4,0,0,0,1.65.34,3.86,3.86,0,0,0,1.6-.34,4,4,0,0,0,1.27-.93,4.53,4.53,0,0,0,.83-1.37,4.57,4.57,0,0,0,0-3.31,4.36,4.36,0,0,0-.83-1.36,4.18,4.18,0,0,0-1.27-.92,3.7,3.7,0,0,0-1.6-.34,3.84,3.84,0,0,0-1.65.35,3.74,3.74,0,0,0-1.24.94,4,4,0,0,0-.79,1.37A4.94,4.94,0,0,0,311.11,129.82Z"/><path class="cls-2" d="M323.05,127.73a3.42,3.42,0,0,1,.54-1.08,3.46,3.46,0,0,1,.81-.81,3.37,3.37,0,0,1,1-.5,3.48,3.48,0,0,1,1.11-.17,3.19,3.19,0,0,1,1.52.32,2.69,2.69,0,0,1,1,.86,3.43,3.43,0,0,1,.51,1.19,6.21,6.21,0,0,1,.15,1.35v5.28h-.42v-5.24a6.84,6.84,0,0,0-.11-1.14,3.12,3.12,0,0,0-.43-1.1,2.66,2.66,0,0,0-.84-.83,2.55,2.55,0,0,0-1.35-.33,3.25,3.25,0,0,0-1.36.29,3.14,3.14,0,0,0-1.1.85,4.13,4.13,0,0,0-.75,1.34,5.48,5.48,0,0,0-.27,1.79v4.37h-.42V119.81H323v7.92Z"/><path class="cls-2" d="M335.47,134.35a3.9,3.9,0,0,1-.58.05,1.71,1.71,0,0,1-1.47-.58,2.33,2.33,0,0,1-.43-1.45v-6.58h-1.91v-.36H333v-2.56h.41v2.56H336v.36h-2.57v6.58a1.64,1.64,0,0,0,.44,1.28A1.68,1.68,0,0,0,335,134a2.74,2.74,0,0,0,1-.17l.06.32A2.31,2.31,0,0,1,335.47,134.35Z"/><path class="cls-2" d="M342.58,131.89a2.27,2.27,0,0,1-.23,1.06,2.36,2.36,0,0,1-.61.79,2.75,2.75,0,0,1-.91.49,3.29,3.29,0,0,1-1.1.17A4.05,4.05,0,0,1,338,134a3.26,3.26,0,0,1-1.3-1.09l.34-.23a3.16,3.16,0,0,0,2.74,1.33,2.83,2.83,0,0,0,.85-.13,2.62,2.62,0,0,0,.78-.4,2.18,2.18,0,0,0,.57-.67,1.91,1.91,0,0,0,.21-.91,1.7,1.7,0,0,0-.27-1,2.13,2.13,0,0,0-.7-.6,3.61,3.61,0,0,0-.92-.37l-.94-.26c-.31-.09-.61-.19-.89-.3a2.47,2.47,0,0,1-.73-.41,1.85,1.85,0,0,1-.5-.64,2.21,2.21,0,0,1-.18-1,2.07,2.07,0,0,1,.23-1,2,2,0,0,1,.61-.69,2.55,2.55,0,0,1,.86-.42,3.32,3.32,0,0,1,1-.14,3,3,0,0,1,2.68,1.27l-.36.21a2.92,2.92,0,0,0-1-.85,3,3,0,0,0-1.33-.27,3.49,3.49,0,0,0-.76.09,2.39,2.39,0,0,0-.73.32,1.8,1.8,0,0,0-.55.58,1.61,1.61,0,0,0-.22.87,2,2,0,0,0,.18.91,1.47,1.47,0,0,0,.5.55,3.53,3.53,0,0,0,.78.36l1,.27c.34.09.68.19,1,.31a3.79,3.79,0,0,1,.85.45,1.9,1.9,0,0,1,.59.67A2,2,0,0,1,342.58,131.89Z"/><path class="cls-2" d="M351.61,134.35a4,4,0,0,1-.59.05,1.7,1.7,0,0,1-1.46-.58,2.28,2.28,0,0,1-.44-1.45v-6.58h-1.9v-.36h1.88v-2.56h.42v2.56h2.56v.36h-2.56v6.58a1.6,1.6,0,0,0,.44,1.28,1.65,1.65,0,0,0,1.15.39,2.7,2.7,0,0,0,1-.17l.06.32A2.37,2.37,0,0,1,351.61,134.35Z"/><path class="cls-2" d="M354.25,127.73a3.9,3.9,0,0,1,.54-1.08,3.66,3.66,0,0,1,.81-.81,3.3,3.3,0,0,1,1-.5,3.38,3.38,0,0,1,1.1-.17,3.17,3.17,0,0,1,1.52.32,2.61,2.61,0,0,1,1,.86,3.43,3.43,0,0,1,.51,1.19,6.21,6.21,0,0,1,.15,1.35v5.28h-.41v-5.24a6,6,0,0,0-.12-1.14,2.94,2.94,0,0,0-.43-1.1,2.41,2.41,0,0,0-2.19-1.16,3.29,3.29,0,0,0-1.36.29,3.23,3.23,0,0,0-1.1.85,4.12,4.12,0,0,0-.74,1.34,5.22,5.22,0,0,0-.28,1.79v4.37h-.42V119.81h.42v7.92Z"/><path class="cls-2" d="M363.5,129.71a5.36,5.36,0,0,0,.24,1.58,4.28,4.28,0,0,0,.72,1.39,3.66,3.66,0,0,0,1.23,1,3.83,3.83,0,0,0,1.75.38,4,4,0,0,0,1.82-.41,4,4,0,0,0,1.39-1.19l.3.27a4.21,4.21,0,0,1-3.51,1.71,4.4,4.4,0,0,1-1.77-.35,4.23,4.23,0,0,1-1.38-1,4.49,4.49,0,0,1-.89-1.5,5.57,5.57,0,0,1-.32-1.9,5,5,0,0,1,.33-1.83,4.57,4.57,0,0,1,.88-1.44,4,4,0,0,1,1.33-.94,4.07,4.07,0,0,1,1.64-.33,4.17,4.17,0,0,1,1.79.36,3.78,3.78,0,0,1,1.26,1,4,4,0,0,1,.76,1.34,5,5,0,0,1,.24,1.53v.36Zm7.4-.36a4.56,4.56,0,0,0-.3-1.56,3.64,3.64,0,0,0-.75-1.21,3.5,3.5,0,0,0-1.14-.78,3.9,3.9,0,0,0-1.48-.27,3.23,3.23,0,0,0-1.69.41,3.62,3.62,0,0,0-1.15,1,4.24,4.24,0,0,0-.66,1.26,3.86,3.86,0,0,0-.21,1.15Z"/><path class="cls-2" d="M377.3,129.71a5.36,5.36,0,0,0,.24,1.58,4.28,4.28,0,0,0,.72,1.39,3.57,3.57,0,0,0,1.23,1,3.78,3.78,0,0,0,1.74.38,4,4,0,0,0,1.83-.41,4.12,4.12,0,0,0,1.39-1.19l.3.27a4.33,4.33,0,0,1-1.51,1.27,4.44,4.44,0,0,1-2,.44,4.39,4.39,0,0,1-1.76-.35,4.13,4.13,0,0,1-1.38-1,4.33,4.33,0,0,1-.89-1.5,5.57,5.57,0,0,1-.32-1.9,5,5,0,0,1,.33-1.83,4.57,4.57,0,0,1,.88-1.44,4,4,0,0,1,3-1.27,4.11,4.11,0,0,1,1.79.36,3.82,3.82,0,0,1,1.27,1,3.77,3.77,0,0,1,.75,1.34,4.72,4.72,0,0,1,.25,1.53v.36Zm7.39-.36a4.56,4.56,0,0,0-.29-1.56,4,4,0,0,0-.75-1.21,3.5,3.5,0,0,0-1.14-.78,3.94,3.94,0,0,0-1.48-.27,3.27,3.27,0,0,0-1.7.41,3.85,3.85,0,0,0-1.15,1,4.45,4.45,0,0,0-.65,1.26,3.86,3.86,0,0,0-.21,1.15Z"/><path class="cls-2" d="M393.34,132.2a9.68,9.68,0,0,0,.05,1.05c0,.38.06.68.1.92h-.4a4.31,4.31,0,0,1,0-.46c0-.18,0-.37-.05-.57s0-.39,0-.58,0-.35,0-.48h-.06a3.07,3.07,0,0,1-1.31,1.78,3.66,3.66,0,0,1-2,.58,3.82,3.82,0,0,1-1.06-.15,2.84,2.84,0,0,1-.94-.46,2.21,2.21,0,0,1-.67-.78,2.32,2.32,0,0,1-.26-1.12,2.25,2.25,0,0,1,.48-1.5,3.35,3.35,0,0,1,1.21-.88,5.29,5.29,0,0,1,1.55-.41,14.14,14.14,0,0,1,1.51-.1h1.52v-.7a2.69,2.69,0,0,0-.78-2.14,3,3,0,0,0-2-.67,3.72,3.72,0,0,0-1.46.28,4.53,4.53,0,0,0-1.2.76l-.23-.32a4.33,4.33,0,0,1,1.38-.81,4.5,4.5,0,0,1,1.51-.27,3.37,3.37,0,0,1,2.36.77,3.07,3.07,0,0,1,.87,2.42Zm-.42-2.8h-1.35a13.57,13.57,0,0,0-1.52.09,5.48,5.48,0,0,0-1.46.35,2.71,2.71,0,0,0-1.09.76,2,2,0,0,0-.43,1.33,2,2,0,0,0,.24,1,1.88,1.88,0,0,0,.6.65,2.65,2.65,0,0,0,.82.37,3.74,3.74,0,0,0,.85.11,3.28,3.28,0,0,0,1.61-.36,3.1,3.1,0,0,0,1-.92,3.52,3.52,0,0,0,.54-1.24,6.07,6.07,0,0,0,.15-1.32Z"/><path class="cls-2" d="M401.23,131.89a2.33,2.33,0,0,1-.85,1.85,2.8,2.8,0,0,1-.9.49,3.33,3.33,0,0,1-1.1.17,4,4,0,0,1-1.76-.37,3.19,3.19,0,0,1-1.3-1.09l.34-.23a3.13,3.13,0,0,0,2.73,1.33,2.83,2.83,0,0,0,.85-.13,2.62,2.62,0,0,0,.78-.4,2.18,2.18,0,0,0,.57-.67,1.91,1.91,0,0,0,.22-.91,1.63,1.63,0,0,0-.28-1,2,2,0,0,0-.69-.6,3.94,3.94,0,0,0-.92-.37l-.94-.26q-.48-.14-.9-.3a2.47,2.47,0,0,1-.73-.41,1.83,1.83,0,0,1-.49-.64,2.21,2.21,0,0,1-.18-1,2.07,2.07,0,0,1,.22-1,2.14,2.14,0,0,1,.61-.69,2.6,2.6,0,0,1,.87-.42,3.27,3.27,0,0,1,1-.14,3.06,3.06,0,0,1,2.68,1.27l-.37.21a2.61,2.61,0,0,0-2.31-1.12,3.42,3.42,0,0,0-.76.09,2.44,2.44,0,0,0-.74.32,1.8,1.8,0,0,0-.55.58,1.7,1.7,0,0,0-.22.87,1.84,1.84,0,0,0,.19.91,1.39,1.39,0,0,0,.5.55,3.15,3.15,0,0,0,.78.36l1,.27a10.37,10.37,0,0,1,1,.31,3.87,3.87,0,0,1,.86.45,2,2,0,0,1,.59.67A2.06,2.06,0,0,1,401.23,131.89Z"/><path class="cls-2" d="M404.84,137.06a3.24,3.24,0,0,1-.81,1.27,1.93,1.93,0,0,1-1.3.44l-.4,0a2.28,2.28,0,0,1-.38-.1l.11-.36.32.08.38,0a1.54,1.54,0,0,0,.7-.15,1.73,1.73,0,0,0,.5-.39,2.18,2.18,0,0,0,.35-.54,6.57,6.57,0,0,0,.26-.61l.84-2.28-3.46-9h.45l3.22,8.52,3.09-8.52h.46Z"/><path class="cls-2" d="M422.91,134.17h-.57l-2.85-8.28h0l-2.83,8.28h-.57l-2.55-8.74h.44l2.39,8.33h0l2.81-8.33h.59l2.83,8.33h0l2.4-8.33h.43Z"/><path class="cls-2" d="M433.3,132.2c0,.33,0,.68.05,1.05s.07.68.11.92h-.4a2.58,2.58,0,0,1-.06-.46c0-.18,0-.37-.05-.57s0-.39,0-.58,0-.35,0-.48h0a3.12,3.12,0,0,1-1.31,1.78,3.69,3.69,0,0,1-2,.58,3.75,3.75,0,0,1-1.05-.15,2.89,2.89,0,0,1-.95-.46,2.28,2.28,0,0,1-.93-1.9,2.26,2.26,0,0,1,.49-1.5,3.23,3.23,0,0,1,1.2-.88,5.37,5.37,0,0,1,1.55-.41,14.3,14.3,0,0,1,1.51-.1h1.52v-.7a2.73,2.73,0,0,0-.77-2.14,3,3,0,0,0-2-.67,3.67,3.67,0,0,0-1.45.28,4.58,4.58,0,0,0-1.21.76l-.23-.32a4.45,4.45,0,0,1,2.89-1.08,3.42,3.42,0,0,1,2.37.77,3.1,3.1,0,0,1,.86,2.42Zm-.42-2.8h-1.34a13.44,13.44,0,0,0-1.52.09,5.55,5.55,0,0,0-1.47.35,2.78,2.78,0,0,0-1.09.76,2,2,0,0,0-.43,1.33,2,2,0,0,0,.24,1,1.91,1.91,0,0,0,.61.65,2.59,2.59,0,0,0,.81.37,3.74,3.74,0,0,0,.85.11,3.32,3.32,0,0,0,1.62-.36,3.06,3.06,0,0,0,1-.92,3.52,3.52,0,0,0,.54-1.24,6.07,6.07,0,0,0,.15-1.32Z"/><path class="cls-2" d="M437.67,137.06a3.12,3.12,0,0,1-.8,1.27,1.94,1.94,0,0,1-1.31.44l-.39,0a2,2,0,0,1-.38-.1l.11-.36.31.08.39,0a1.54,1.54,0,0,0,.7-.15,1.73,1.73,0,0,0,.5-.39,2.18,2.18,0,0,0,.35-.54,6.57,6.57,0,0,0,.26-.61l.83-2.28-3.45-9h.45l3.21,8.52,3.1-8.52H442Z"/><path class="cls-2" d="M197.93,55.78a5.63,5.63,0,0,0-8.66,6.36l-18,14.53L148.14,63.45a6.85,6.85,0,0,0-10.92-7.21l-21-16.16a4.87,4.87,0,1,0-9.48-1.54A4.82,4.82,0,0,0,108.26,42L97.59,64.76a7.65,7.65,0,0,0-1.8-.23,7.75,7.75,0,0,0-5.87,2.71L64.57,53.1a7.49,7.49,0,1,0-7.15,5.33A7.44,7.44,0,0,0,63,55.87L88.38,70A7.66,7.66,0,0,0,88,72.32a7.77,7.77,0,0,0,1.32,4.33L74.81,91.41a11.67,11.67,0,0,0-17,3.36l-21.32-9.1a5.16,5.16,0,0,0,.09-.89,6.26,6.26,0,1,0-1.33,3.81l21.31,9.1A11.65,11.65,0,0,0,60,109.49L49.16,125.55a4.8,4.8,0,0,0-1.26-.19,4.92,4.92,0,1,0,3.88,2l10.86-16.06a11.55,11.55,0,0,0,5.18,1.22,11.68,11.68,0,0,0,9-4.26L89.69,118a7.59,7.59,0,0,0-.78,3.33,7.77,7.77,0,0,0,15.51.73l27.33-9.36a9.58,9.58,0,0,0,15.75,4.35l12.93,12.21a5.64,5.64,0,1,0,1.29-3.14l-12.28-11.6a9.46,9.46,0,0,0,1.12-4.49,9.59,9.59,0,0,0-7.24-9.3l-.49-32.41a6.9,6.9,0,0,0,3.77-2.11l23.74,13.57,19.16,27.71c-.05.07-.12.12-.17.2a4,4,0,1,0,3.06-1.59L173.57,78.89l17.55-14.17.13.12a5.63,5.63,0,1,0,6.68-9.06Zm-66.54,53.69-27.34,9.37a7.71,7.71,0,0,0-12.44-3.36l-13.09-10a11.67,11.67,0,0,0-1.45-11.88L91.58,78.86a7.66,7.66,0,0,0,4.21,1.25,7.75,7.75,0,0,0,7-4.38L133,104.63A9.55,9.55,0,0,0,131.39,109.47ZM103.56,72.1a7.77,7.77,0,0,0-3.11-6l10.68-22.75a4.36,4.36,0,0,0,.52,0,4.84,4.84,0,0,0,2.68-.81l20.94,16.14a6.82,6.82,0,0,0,4.39,9.42l.49,32.34a9.51,9.51,0,0,0-4.93,1.85Z"/></svg>