<?xml version="1.0" encoding="UTF-8" standalone="no"?><!DOCTYPE svg PUBLIC "-//W3C//DTD SVG 1.1//EN" "http://www.w3.org/Graphics/SVG/1.1/DTD/svg11.dtd"><svg width="100%" height="100%" viewBox="0 0 3508 1300" version="1.1" xmlns="http://www.w3.org/2000/svg" xmlns:xlink="http://www.w3.org/1999/xlink" xml:space="preserve" xmlns:serif="http://www.serif.com/" style="fill-rule:evenodd;clip-rule:evenodd;stroke-linejoin:round;stroke-miterlimit:1.41421;"><g><path d="M318.649,831.72l0,-657.656l-245.668,0l0,-87.993l591.026,0l0,87.993l-246.685,0l0,657.656l-98.673,0Z" style="fill:#fff;fill-rule:nonzero;stroke:#fff;stroke-width:9px;"/><path d="M1083.62,86.071l288.901,745.649l-107.321,0l-193.787,-541.18c-16.954,-47.472 -30.009,-88.332 -39.164,-122.579c-11.19,41.029 -24.415,81.889 -39.673,122.579l-201.417,541.18l-100.708,0l291.443,-745.649l101.726,0Z" style="fill:#fff;fill-rule:nonzero;stroke:#fff;stroke-width:9px;"/><path d="M1456.96,831.72l0,-745.649l98.674,0l0,657.656l367.229,0l0,87.993l-465.903,0Z" style="fill:#fff;fill-rule:nonzero;stroke:#fff;stroke-width:9px;"/><path d="M2008.82,468.56c0,-124.106 33.4,-221.084 100.2,-290.936c66.8,-69.851 152.419,-104.777 256.857,-104.777c104.777,0 190.312,35.519 256.603,106.558c66.291,71.038 99.437,164.541 99.437,280.508c0,115.289 -33.4,208.198 -100.2,278.728c-66.8,70.53 -152.249,105.795 -256.349,105.795c-74.937,0 -140.635,-18.735 -197.093,-56.204c-56.458,-37.469 -97.148,-85.619 -122.071,-144.45c-24.922,-58.831 -37.384,-117.239 -37.384,-175.222Zm101.726,1.526c0,85.11 23.058,154.707 69.173,208.791c46.116,54.084 107.829,81.126 185.141,81.126c75.955,0 137.499,-26.703 184.632,-80.108c47.133,-53.406 70.699,-126.903 70.699,-220.491c0,-94.944 -23.736,-168.949 -71.208,-222.016c-47.472,-53.067 -108.338,-79.6 -182.597,-79.6c-72.904,0 -133.769,24.923 -182.598,74.768c-48.828,49.846 -73.242,129.022 -73.242,237.53Zm107.32,32.552l0,-87.484l295.005,0l0,87.484l-295.005,0Z" style="fill:#fff;fill-rule:nonzero;stroke:#fff;stroke-width:9px;"/><path d="M2817.03,592.156l93.079,-8.138c4.408,37.3 14.665,67.902 30.772,91.808c16.106,23.905 41.114,43.233 75.023,57.983c33.908,14.75 72.055,22.125 114.441,22.125c37.638,0 70.869,-5.594 99.691,-16.784c28.822,-11.19 50.269,-26.534 64.341,-46.031c14.072,-19.498 21.108,-40.775 21.108,-63.833c0,-23.397 -6.781,-43.827 -20.345,-61.29c-13.563,-17.462 -35.943,-32.128 -67.139,-43.996c-20.006,-7.799 -64.256,-19.921 -132.752,-36.367c-68.495,-16.445 -116.475,-31.959 -143.941,-46.539c-35.604,-18.65 -62.138,-41.793 -79.6,-69.428c-17.463,-27.635 -26.195,-58.577 -26.195,-92.825c0,-37.638 10.681,-72.818 32.044,-105.54c21.362,-32.722 52.558,-57.56 93.587,-74.514c41.03,-16.954 86.637,-25.431 136.821,-25.431c55.271,0 104.015,8.901 146.231,26.703c42.216,17.802 74.683,43.996 97.402,78.583c22.719,34.586 34.926,73.751 36.621,117.493l-94.605,7.121c-5.086,-47.133 -22.294,-82.737 -51.625,-106.812c-29.331,-24.075 -72.649,-36.113 -129.955,-36.113c-59.679,0 -103.166,10.936 -130.463,32.807c-27.296,21.871 -40.944,48.235 -40.944,79.091c0,26.788 9.664,48.829 28.991,66.122c18.989,17.293 68.58,35.01 148.774,53.152c80.194,18.141 135.21,33.993 165.05,47.556c43.403,20.006 75.446,45.353 96.131,76.04c20.684,30.687 31.026,66.037 31.026,106.049c0,39.673 -11.36,77.057 -34.078,112.152c-22.719,35.096 -55.356,62.392 -97.911,81.89c-42.555,19.497 -90.451,29.246 -143.688,29.246c-67.477,0 -124.02,-9.834 -169.627,-29.501c-45.607,-19.667 -81.38,-49.252 -107.32,-88.755c-25.94,-39.504 -39.589,-84.178 -40.945,-134.024Z" style="fill:#fff;fill-rule:nonzero;stroke:#fff;stroke-width:9px;"/></g><g><text x="1337.76px" y="1097.48px" style="font-family:'JustMeAgainDownHere', 'Just Me Again Down Here';font-size:288px;fill:#fff;">.</text><text x="1292.9px" y="1097.3px" style="font-family:'JustMeAgainDownHere', 'Just Me Again Down Here';font-size:288px;fill:#fff;">.. creating insights the easy way</text></g></svg>